<svg id="Camada_1" data-name="Camada 1" xmlns="http://www.w3.org/2000/svg" width="40" height="47.43" viewBox="0 0 40 47.43"><defs><style>.cls-1{fill:#fff;}</style></defs><title>romaji-actived</title><path class="cls-1" d="M33.37,36.5l-6.65-15a1.16,1.16,0,0,0-1.08-.69,1.15,1.15,0,0,0-1.07.69l-3.1,7a26.9,26.9,0,0,1-2.64-1.3C23.74,23.13,24.22,19,24.11,17h5.28a1.14,1.14,0,0,0,0-2.26l0,0H18.79V11.21a1.13,1.13,0,1,0-2.26,0v3.53H6A1.14,1.14,0,0,0,6,17H21.81c.09,1.44-.23,5.12-5,8.81C13.26,23,13,20.25,13,20.22a1.1,1.1,0,0,0-.39-.81,1.12,1.12,0,0,0-1.59.1,1.08,1.08,0,0,0-.28.8c0,.22.21,3.53,4.14,6.87A35.55,35.55,0,0,1,7.92,30.4a1.15,1.15,0,0,0,.38,2.27,1.21,1.21,0,0,0,.38-.06,37.88,37.88,0,0,0,8.16-3.93,32.34,32.34,0,0,0,3.7,1.91L17.91,36.5a1.16,1.16,0,0,0,2.13.94L21.57,34h8.15l1.53,3.48a1.16,1.16,0,1,0,2.12-.94ZM22.6,31.64l3-6.92,3.05,6.92Z"/></svg>